<svg width="205" height="15" viewBox="0 0 205 15" fill="none" xmlns="http://www.w3.org/2000/svg">
<path d="M7.23295 14.2045C10.9723 14.2045 13.9957 11.1811 13.983 7.45455C13.9702 3.72798 10.9723 0.704545 7.23295 0.704545C3.51918 0.704545 0.495739 3.72798 0.482955 7.45455C0.470171 11.1811 3.51918 14.2045 7.23295 14.2045ZM7.23295 12.7216C4.32457 12.7216 1.95312 10.3501 1.96591 7.46094C1.97869 4.55256 4.33736 2.1875 7.23295 2.1875C10.1413 2.1875 12.4872 4.53977 12.5 7.46094C12.5128 10.3629 10.1541 12.7216 7.23295 12.7216ZM3.5 7.45455C3.5 9.55114 5.20028 11.2514 7.29688 11.2514C9.11222 11.2514 10.5057 9.97301 10.7486 8.27273H9.2017C9.02273 9.14844 8.28125 9.76847 7.29688 9.76847C6.01847 9.76847 4.98295 8.73295 4.98295 7.45455C4.98295 6.17614 6.01847 5.14062 7.29688 5.14062C8.28125 5.14062 9.15696 5.76065 9.32955 6.63636H10.8764C10.6335 4.93608 9.11222 3.65767 7.29688 3.65767C5.20028 3.65767 3.5 5.35795 3.5 7.45455ZM21.8883 14H30.1468V12.5938H24.0616V12.4915L27.002 9.34659C29.252 6.93679 29.9167 5.81179 29.9167 4.3608C29.9167 2.34091 28.2804 0.730113 25.9792 0.730113C23.6845 0.730113 21.9395 2.28977 21.9395 4.59091H23.448C23.448 3.10156 24.4132 2.1108 25.9281 2.1108C27.3471 2.1108 28.4338 2.98011 28.4338 4.3608C28.4338 5.56889 27.7243 6.46378 26.2093 8.11932L21.8883 12.8494V14ZM37.0566 14.179C39.9458 14.179 41.6078 11.7308 41.6078 7.45455C41.6078 3.21023 39.9203 0.730113 37.0566 0.730113C34.193 0.730113 32.5055 3.21023 32.5055 7.45455C32.5055 11.7308 34.1674 14.179 37.0566 14.179ZM37.0566 12.7727C35.1518 12.7727 34.0396 10.8615 34.0396 7.45455C34.0396 4.05398 35.1646 2.1108 37.0566 2.1108C38.9487 2.1108 40.0737 4.05398 40.0737 7.45455C40.0737 10.8615 38.9615 12.7727 37.0566 12.7727ZM44.0368 14H52.2953V12.5938H46.21V12.4915L49.1504 9.34659C51.4004 6.93679 52.0652 5.81179 52.0652 4.3608C52.0652 2.34091 50.4288 0.730113 48.1277 0.730113C45.8329 0.730113 44.0879 2.28977 44.0879 4.59091H45.5964C45.5964 3.10156 46.5616 2.1108 48.0765 2.1108C49.4956 2.1108 50.5822 2.98011 50.5822 4.3608C50.5822 5.56889 49.8727 6.46378 48.3578 8.11932L44.0368 12.8494V14ZM59.5375 0.909091H57.9522L54.6795 3.08239V4.69318L57.8755 2.57102H57.9522V14H59.5375V0.909091ZM69.1319 14L70.4487 10.2926H75.7413L77.0581 14H78.72L73.9132 0.909091H72.2768L67.47 14H69.1319ZM70.9473 8.88636L73.0439 2.98011H73.1461L75.2427 8.88636H70.9473ZM80.5545 14H82.063V7.78693C82.063 6.45739 83.1113 5.4858 84.5431 5.4858C84.9458 5.4858 85.3613 5.5625 85.4636 5.58807V4.05398C85.291 4.04119 84.8947 4.02841 84.671 4.02841C83.4949 4.02841 82.4721 4.69318 82.1142 5.66477H82.0119V4.18182H80.5545V14ZM90.9416 14.2045C93.6007 14.2045 95.3904 12.1847 95.3904 9.14205C95.3904 6.07386 93.6007 4.05398 90.9416 4.05398C88.2825 4.05398 86.4927 6.07386 86.4927 9.14205C86.4927 12.1847 88.2825 14.2045 90.9416 14.2045ZM90.9416 12.8494C88.9217 12.8494 88.0012 11.1108 88.0012 9.14205C88.0012 7.1733 88.9217 5.40909 90.9416 5.40909C92.9615 5.40909 93.8819 7.1733 93.8819 9.14205C93.8819 11.1108 92.9615 12.8494 90.9416 12.8494ZM103.881 9.9858C103.881 11.8267 102.474 12.6705 101.349 12.6705C100.097 12.6705 99.2017 11.75 99.2017 10.3182V4.18182H97.6932V10.4205C97.6932 12.9261 99.0227 14.1278 100.864 14.1278C102.347 14.1278 103.318 13.3352 103.778 12.3381H103.881V14H105.389V4.18182H103.881V9.9858ZM109.661 8.09375C109.661 6.38068 110.722 5.40909 112.166 5.40909C113.566 5.40909 114.416 6.32315 114.416 7.86364V14H115.925V7.76136C115.925 5.25568 114.589 4.05398 112.601 4.05398C111.118 4.05398 110.198 4.71875 109.737 5.71591H109.61V4.18182H108.152V14H109.661V8.09375ZM122.389 14.2045C124.281 14.2045 124.92 13.0284 125.252 12.4915H125.431V14H126.889V0.909091H125.38V5.74148H125.252C124.92 5.23011 124.332 4.05398 122.414 4.05398C119.934 4.05398 118.221 6.02273 118.221 9.11648C118.221 12.2358 119.934 14.2045 122.389 14.2045ZM122.593 12.8494C120.701 12.8494 119.73 11.1875 119.73 9.09091C119.73 7.01989 120.676 5.40909 122.593 5.40909C124.434 5.40909 125.406 6.89205 125.406 9.09091C125.406 11.3153 124.409 12.8494 122.593 12.8494ZM134.412 2.31534H138.529V14H140.114V2.31534H144.23V0.909091H134.412V2.31534ZM147.981 8.09375C147.981 6.38068 149.074 5.40909 150.563 5.40909C151.982 5.40909 152.839 6.30398 152.839 7.86364V14H154.347V7.76136C154.347 5.23651 153.005 4.05398 150.998 4.05398C149.451 4.05398 148.569 4.69957 148.109 5.71591H147.981V0.909091H146.472V14H147.981V8.09375ZM161.224 14.2045C163.218 14.2045 164.675 13.2074 165.136 11.7244L163.678 11.3153C163.295 12.3381 162.406 12.8494 161.224 12.8494C159.453 12.8494 158.232 11.7053 158.162 9.60227H165.289V8.96307C165.289 5.30682 163.116 4.05398 161.07 4.05398C158.411 4.05398 156.647 6.15057 156.647 9.16761C156.647 12.1847 158.386 14.2045 161.224 14.2045ZM158.162 8.2983C158.264 6.7706 159.344 5.40909 161.07 5.40909C162.707 5.40909 163.755 6.63636 163.755 8.2983H158.162ZM181.442 0.909091V9.44886C181.442 11.3665 180.125 12.7472 177.939 12.7472C175.753 12.7472 174.436 11.3665 174.436 9.44886V0.909091H172.851V9.5767C172.851 12.2614 174.858 14.2301 177.939 14.2301C181.02 14.2301 183.027 12.2614 183.027 9.5767V0.909091H181.442ZM186.472 14.1023C187.105 14.1023 187.623 13.5845 187.623 12.9517C187.623 12.3189 187.105 11.8011 186.472 11.8011C185.839 11.8011 185.322 12.3189 185.322 12.9517C185.322 13.5845 185.839 14.1023 186.472 14.1023ZM197.694 4.18182H199.228C199.157 2.20668 197.336 0.730113 194.804 0.730113C192.299 0.730113 190.33 2.1875 190.33 4.38636C190.33 6.15057 191.608 7.19886 193.654 7.78693L195.265 8.24716C196.645 8.63068 197.873 9.11648 197.873 10.4205C197.873 11.8523 196.492 12.7983 194.676 12.7983C193.117 12.7983 191.736 12.108 191.608 10.625H189.972C190.125 12.7727 191.864 14.2301 194.676 14.2301C197.694 14.2301 199.407 12.5682 199.407 10.446C199.407 7.99148 197.08 7.19886 195.725 6.84091L194.395 6.48295C193.424 6.22727 191.864 5.71591 191.864 4.30966C191.864 3.05682 193.015 2.13636 194.753 2.13636C196.338 2.13636 197.54 2.89062 197.694 4.18182ZM202.908 14.1023C203.541 14.1023 204.058 13.5845 204.058 12.9517C204.058 12.3189 203.541 11.8011 202.908 11.8011C202.275 11.8011 201.757 12.3189 201.757 12.9517C201.757 13.5845 202.275 14.1023 202.908 14.1023Z" fill="#545454"/>
</svg>
